<svg xmlns="http://www.w3.org/2000/svg" width="1024" height="1024" viewBox="0 0 1024 1024"
    version="1.1">
    <path
        d="M 605 373.627 C 582.423 377.014, 566.722 385.878, 551.223 403.989 C 545.194 411.034, 534.910 425.782, 530.121 434.250 C 525.738 442, 524.111 444.795, 517.461 456 C 474.951 527.632, 469.876 535.169, 453.262 551.334 C 445.406 558.978, 432.930 568.245, 425.816 571.722 C 422.212 573.483, 420.676 574.695, 421.619 575.032 C 423.972 575.873, 404.801 589.682, 394.500 594.566 C 381.450 600.754, 371.092 603.924, 358.025 605.729 C 330.231 609.568, 300.737 601.493, 276.882 583.515 C 272.272 580.041, 268.351 577.340, 268.169 577.514 C 267.464 578.185, 270.469 582.752, 275.350 588.428 C 294.788 611.034, 316.124 623.720, 349.517 632.529 C 363.230 636.147, 390.539 637.122, 406.133 634.550 C 426.212 631.240, 441.138 625.923, 458.817 615.783 C 469.716 609.533, 477.533 603.519, 488.353 593.058 C 503.133 578.771, 513.637 564.578, 532.063 534 C 544.574 513.236, 561.896 487.560, 567.196 481.922 C 577.977 470.453, 590.102 464.273, 605.260 462.520 L 611.021 461.854 610.760 417.690 C 610.477 369.667, 610.880 372.745, 605 373.627 M 705 501.500 L 705 629 734 629 L 763 629 763 501.500 L 763 374 734 374 L 705 374 705 501.500 M 553.266 523.250 C 552.728 523.938, 550.838 527.200, 549.066 530.500 C 547.293 533.800, 543.066 540.905, 539.672 546.289 C 536.277 551.673, 531.341 559.505, 528.702 563.693 C 526.064 567.882, 524.095 571.802, 524.328 572.405 C 525.126 574.473, 538.437 590.502, 543.598 595.610 C 556.715 608.594, 571.951 618.651, 587.097 624.324 C 594.821 627.216, 605.991 629.950, 610.262 629.992 C 610.681 629.997, 610.906 612.563, 610.762 591.250 L 610.500 552.500 607.500 552.254 C 597.509 551.436, 585.662 547.317, 576.567 541.499 C 571.076 537.987, 557 524.614, 557 522.910 C 557 521.567, 554.398 521.804, 553.266 523.250"
        stroke="none" fill="#0d9488cc" fill-rule="evenodd" />
    <path
        d="M 367.090 365.047 C 332.763 369.358, 302.348 384.375, 279.233 408.425 C 260.742 427.664, 249.856 447.837, 244.385 473 C 241.774 485.011, 241.738 514.943, 244.321 527 C 248.003 544.192, 253.645 557.751, 263.130 572.198 C 268.266 580.021, 269.509 581.489, 268.276 578.276 C 267.741 576.882, 268.178 576.985, 270.557 578.812 C 293.379 596.338, 310.975 603.819, 334.931 606.180 C 361.625 608.811, 390.109 600.356, 413.353 582.900 C 424.114 574.818, 424.200 573.106, 413.631 577.337 C 387.883 587.645, 355.110 584.464, 332.509 569.462 C 314.693 557.637, 301.655 539.330, 296.925 519.500 C 293.770 506.272, 294.522 489.261, 298.850 475.970 C 303.951 460.303, 312.527 447.827, 325.224 437.601 C 345.917 420.936, 373.053 413.916, 399.173 418.471 C 426.087 423.164, 448.133 438.966, 470.082 469.297 C 474.520 475.429, 478.888 481.695, 479.791 483.223 C 481.987 486.941, 483.399 486.723, 486.107 482.250 C 487.355 480.188, 494.186 469.102, 501.286 457.616 C 516.120 433.618, 515.734 437.106, 505.030 423.837 C 490.183 405.431, 470.896 389.536, 451.612 379.815 C 441.411 374.673, 422.914 368.543, 411.500 366.523 C 400.454 364.568, 377.090 363.791, 367.090 365.047 M 618.233 489.123 C 613.223 490.569, 606.412 497.692, 605.003 502.958 C 601.844 514.769, 609.724 527.145, 621.819 529.368 C 626.356 530.201, 633.812 528.381, 637.557 525.524 L 640.657 523.160 643.288 525.947 C 646.580 529.435, 650.938 530.356, 655.960 528.626 C 658.209 527.851, 660.405 527.641, 661.173 528.128 C 663.035 529.309, 667.755 529.205, 668.520 527.967 C 668.871 527.399, 668.316 525.486, 667.285 523.717 C 665.831 521.221, 665.628 519.897, 666.378 517.810 C 667.712 514.096, 665.628 511.624, 661.806 512.389 C 658.355 513.079, 658.035 511.043, 661 507.273 C 665.885 501.062, 661.793 492.973, 653.795 493.032 C 646.398 493.087, 643.265 497.195, 645.091 504.446 C 646.146 508.639, 646.051 509.150, 643.697 511.949 C 642.307 513.601, 640.871 516.313, 640.505 517.976 C 639.695 521.666, 639.336 521.696, 635.856 518.362 C 633.156 515.775, 633.035 515.755, 629.650 517.362 C 627.751 518.263, 625.288 519, 624.176 519 C 621.254 519, 616.252 514.422, 615.517 511.077 C 614.034 504.324, 620.665 497.109, 627.062 498.514 C 628.665 498.866, 630.234 499.569, 630.548 500.077 C 631.631 501.830, 634.635 500.991, 637.323 498.184 L 640.021 495.368 637.747 493.232 C 632.800 488.585, 625.457 487.038, 618.233 489.123 M 671.433 490.108 C 670.932 490.918, 670.559 520.948, 670.959 528.250 C 670.982 528.663, 673.250 529, 676 529 L 681 529 681 521.500 L 681 514 685.456 514 L 689.912 514 690.206 521.250 L 690.500 528.500 694.901 528.815 C 697.636 529.011, 699.592 528.660, 700.070 527.887 C 701.132 526.169, 701.210 491.808, 700.156 490.185 C 699.605 489.337, 697.738 488.982, 694.901 489.185 L 690.500 489.500 690.206 496.750 L 689.912 504 685.456 504 L 681 504 681 496.500 L 681 489 676.559 489 C 674.116 489, 671.810 489.499, 671.433 490.108 M 650.723 516.611 C 649.522 517.811, 649.909 519.751, 651.468 520.349 C 652.275 520.659, 653.161 520.549, 653.436 520.104 C 654.133 518.975, 651.609 515.725, 650.723 516.611"
        stroke="none" fill="#3a3440" fill-rule="evenodd" />
</svg>